<svg width="67" height="68" viewBox="0 0 67 68" fill="none" xmlns="http://www.w3.org/2000/svg">
<path d="M2 33.625C2 16.159 16.2412 2 33.8085 2C37.0463 2 40.1712 2.48098 43.1147 3.375" stroke="white" stroke-width="4" stroke-linecap="round" stroke-linejoin="round"/>
<path fill-rule="evenodd" clip-rule="evenodd" d="M26.9628 40.4309C30.7436 44.1896 36.873 44.1896 40.6537 40.4309C44.4343 36.6721 60.0847 10.2501 58.7018 8.87506C57.3188 7.50006 30.7436 23.0604 26.9628 26.8192C23.1823 30.5779 23.1823 36.6721 26.9628 40.4309ZM33.808 36.3752C35.3356 36.3752 36.5742 35.144 36.5742 33.6252C36.5742 32.1064 35.3356 30.8752 33.808 30.8752C32.2805 30.8752 31.0422 32.1064 31.0422 33.6252C31.0422 35.144 32.2805 36.3752 33.808 36.3752Z" fill="white"/>
<ellipse cx="6.14901" cy="50.125" rx="2.76596" ry="2.75" fill="white"/>
<ellipse cx="17.2127" cy="61.125" rx="2.76596" ry="2.75" fill="white"/>
<ellipse cx="33.8084" cy="65.25" rx="2.76596" ry="2.75" fill="white"/>
<ellipse cx="50.4041" cy="61.125" rx="2.76596" ry="2.75" fill="white"/>
<ellipse cx="60.085" cy="50.125" rx="2.76596" ry="2.75" fill="white"/>
<ellipse cx="64.234" cy="33.625" rx="2.76596" ry="2.75" fill="white"/>
</svg>
